<?xml version="1.0" encoding="utf-8"?>
<!-- Generator: Adobe Illustrator 16.0.0, SVG Export Plug-In . SVG Version: 6.00 Build 0)  -->
<!DOCTYPE svg PUBLIC "-//W3C//DTD SVG 1.1//EN" "http://www.w3.org/Graphics/SVG/1.1/DTD/svg11.dtd">
<svg version="1.1" id="Layer_1" xmlns="http://www.w3.org/2000/svg" xmlns:xlink="http://www.w3.org/1999/xlink" x="0px" y="0px"
	 width="39.381px" height="499.27px" viewBox="0 0 39.381 499.27" enable-background="new 0 0 39.381 499.27" xml:space="preserve">
<g>
	<g>
		<path fill="#225A1E" d="M23.478,499.206c6.477-0.691,10.562-5.092,12.86-10.76c2.321-5.68,3.036-12.703,3.043-19.201
			c-0.004-5.08-0.449-9.838-0.948-13.365c-2.512-17.703-7.98-33.953-15.058-50.1c-4.352-9.922-6.292-13.082-8.589-22.678
			c0.137,0.184,0.253,0.381,0.398,0.559c2.872,3.588,6.683,5.15,10.349,5.143c6.755,0,13.24-5.213,13.278-12.555
			c0-2.189-0.599-4.533-1.912-6.902c-1.575-2.82-4.662-4.619-7.678-4.633c-1.972-0.012-3.967,0.83-5.273,2.744
			c-1.07,1.551-1.551,3.135-1.551,4.58c0,6.076,7.701,7.455,8.005,2.742c0.081-1.254-0.818-2.459-2.073-2.264
			c1.102-0.174,1.346,1.537,0.968,2.322c-0.599,1.246-2.164,1.139-3.186,0.619c-1.245-0.633-1.946-1.99-1.95-3.42
			c0-1.018,0.33-2.211,1.222-3.508c0.962-1.389,2.308-1.963,3.839-1.977c2.33-0.016,4.959,1.518,6.151,3.711
			c1.182,2.133,1.673,4.145,1.673,5.984c-0.01,6.084-5.561,10.705-11.513,10.715c-3.203-0.006-6.503-1.275-9-4.484
			c-1.077-1.387-2.008-2.996-2.789-4.582c-0.775-1.574-1.422-3.221-1.928-4.908c-1.829-6.088-1.798-12.613-1.159-18.896
			c0.297-2.918,0.692-5.822,1.177-8.707c1.728-10.307,4.634-20.289,7.253-30.367c1.295-4.98,2.555-9.975,3.713-14.992
			c1.097-4.766,2.124-9.549,2.937-14.375c0.636-3.76,1.196-7.596,1.196-11.422c0-8.129-0.935-16.227-4.732-23.863
			c0.027,0,0.056,0.004,0.084,0.004c0.396,0,0.794-0.023,1.193-0.064c6.477-0.695,10.562-5.093,12.86-10.764
			c2.321-5.676,3.036-12.699,3.043-19.197c-0.004-5.082-0.449-9.836-0.948-13.368c-2.512-17.703-7.98-33.951-15.057-50.1
			c-4.353-9.921-6.293-13.082-8.59-22.679c0.137,0.182,0.253,0.379,0.398,0.56c2.872,3.588,6.684,5.149,10.35,5.143
			c6.754,0,13.24-5.215,13.277-12.554c0-2.193-0.598-4.536-1.912-6.905c-1.574-2.82-4.662-4.617-7.678-4.632
			c-1.971-0.012-3.967,0.83-5.273,2.744c-1.07,1.551-1.551,3.135-1.551,4.58c0,6.075,7.701,7.457,8.006,2.745
			c0.08-1.256-0.818-2.461-2.074-2.265c1.102-0.173,1.346,1.538,0.969,2.321c-0.6,1.244-2.164,1.14-3.186,0.62
			c-1.246-0.634-1.947-1.992-1.951-3.42c0-1.017,0.33-2.21,1.223-3.507c0.961-1.389,2.307-1.967,3.838-1.978
			c2.33-0.014,4.959,1.516,6.152,3.713c1.182,2.132,1.672,4.141,1.672,5.984c-0.01,6.081-5.561,10.702-11.512,10.714
			c-3.203-0.008-6.504-1.275-9.001-4.486c-1.077-1.389-2.008-2.999-2.789-4.585c-0.775-1.571-1.422-3.217-1.928-4.905
			c-1.829-6.088-1.798-12.612-1.159-18.898c0.297-2.916,0.692-5.819,1.177-8.706c1.728-10.303,4.634-20.288,7.253-30.367
			c1.295-4.981,2.555-9.973,3.713-14.993c1.098-4.763,2.125-9.547,2.938-14.373c0.635-3.76,1.195-7.597,1.195-11.424
			c0-8.645-1.016-17.264-5.457-25.324h-2.821h-1.86c3.953,7.177,7.32,10.01,7.785,21.858c-1.617,3.381-6.767,5.73-9.297,7.755
			c3.942-1.808,7.961-4.49,9.317-7.362c0.027,0.797,0.041,1.633,0.041,2.516c0.004,13.046-3.771,26.561-6.972,39.227
			c-0.477,1.896-0.948,3.792-1.41,5.692c-1.2,4.709-2.237,9.474-3.231,14.241c-0.359,1.728-0.714,3.456-1.067,5.18
			c-1.622,7.902-3.153,15.901-3.153,24.015c0,3.42,0.314,6.788,1.032,10.006l-0.054-0.104c1.383,9.128,4.896,18.221,8.565,26.774
			c0.252,3.779-3.302,8.343-4.62,11.356c2.66-3.45,4.979-7.716,4.819-10.893c1.082,2.51,2.175,4.98,3.226,7.382
			c1.543,3.527,3.043,7.074,4.479,10.65c2.557,6.371,4.854,12.856,6.773,19.469c1.918,6.613,3.41,13.372,4.333,20.215
			c0.323,2.388,0.582,4.786,0.725,7.192c0.473,7.996-0.291,16.235-3.366,23.649c-2.202,5.302-5.669,9.001-11.427,9.651
			c-0.332,0.038-0.67,0.058-1.007,0.058c-5.261,0.022-10.552-4.482-11.01-9.946c-0.025-0.258-0.032-0.514-0.032-0.779
			c0.007-4.478,3.457-8.68,7.374-8.688c1.109,0,2.285,0.322,3.498,1.093c2.55,1.588,4.512,4.891,4.486,7.708
			c-0.035,2.69-2.077,5.416-4.829,5.204c-2.726-0.209-4.853-2.99-4.013-5.833c0.451-1.529,2.284-1.688,3.295-0.563
			c0.79,0.88,0.687,2.673-0.727,2.654c1.795,0.499,2.319-1.483,1.741-2.961c-0.804-2.066-3.296-2.17-4.767-0.811
			c-2.969,2.744-0.001,7.35,2.717,8.721c4.015,2.022,8.387-2.246,8.345-6.411c-0.025-3.653-2.28-7.329-5.333-9.284
			c-1.461-0.927-2.97-1.357-4.413-1.357c-5.137,0.049-9.117,5.14-9.134,10.529c0,0.314,0.01,0.632,0.038,0.953
			c0.438,4.587,3.48,8.406,7.367,10.308c4.215,7.607,7.752,10.349,7.752,24.605c0,0.879-0.059,1.766-0.091,2.648
			c-1.649,3.348-6.75,5.684-9.267,7.695c3.884-1.781,7.838-4.412,9.251-7.234c-0.523,12.072-3.919,24.453-6.866,36.121
			c-0.477,1.895-0.948,3.789-1.41,5.689c-1.2,4.709-2.237,9.473-3.231,14.242c-0.359,1.725-0.714,3.453-1.067,5.18
			c-1.622,7.9-3.153,15.902-3.153,24.016c0,3.42,0.314,6.785,1.032,10.006l-0.054-0.104c1.383,9.133,4.899,18.23,8.572,26.791
			c-0.158,3.637-3.385,7.855-4.627,10.691c2.48-3.217,4.667-7.145,4.824-10.236c1.078,2.508,2.169,4.973,3.22,7.375
			c1.544,3.525,3.044,7.07,4.479,10.646c2.556,6.371,4.853,12.859,6.772,19.469c1.919,6.615,3.41,13.371,4.334,20.217
			c0.323,2.387,0.582,4.787,0.725,7.189c0.473,7.998-0.291,16.236-3.366,23.65c-2.202,5.303-5.669,9-11.427,9.65
			c-0.332,0.039-0.67,0.059-1.007,0.059c-5.261,0.02-10.552-4.482-11.01-9.945c-0.025-0.26-0.032-0.514-0.032-0.779
			c0.007-4.479,3.457-8.682,7.374-8.689c1.109,0,2.285,0.324,3.498,1.096c2.55,1.588,4.512,4.891,4.486,7.707
			c-0.035,2.689-2.077,5.414-4.829,5.201c-2.726-0.211-4.853-2.99-4.013-5.834c0.451-1.527,2.284-1.686,3.295-0.561
			c0.79,0.877,0.687,2.672-0.727,2.654c1.795,0.496,2.319-1.486,1.741-2.965c-0.804-2.062-3.296-2.166-4.767-0.809
			c-2.969,2.746-0.001,7.352,2.717,8.721c4.015,2.025,8.387-2.242,8.345-6.408c-0.025-3.656-2.28-7.33-5.333-9.287
			c-1.461-0.926-2.97-1.355-4.413-1.355c-5.137,0.049-9.117,5.139-9.134,10.529c0,0.312,0.01,0.633,0.038,0.951
			c0.629,6.582,6.607,11.59,12.764,11.613C22.681,499.27,23.079,499.249,23.478,499.206z M9.784,371.928L9.784,371.928
			c0-0.002,0-0.002,0-0.002V371.928z M9.784,123.025L9.784,123.025c0-0.001,0-0.002,0-0.004V123.025z M14.443,20.018
			c0.896,0.851,1.236,2.265,2.112,3.208c1.008,1.085,2.513,1.672,3.991,1.654c0.58-0.007,1.123-0.218,1.695-0.255
			C21.785,21.443,17.418,19.242,14.443,20.018z M17.672,27.713c-1.294-1.014-2.115-2.038-3.869-2.241
			c-0.757-0.089-1.516-0.029-2.268,0.084c-0.274,0.041-2.211,0.618-2.325,0.495c1.056,1.148,2.53,1.877,4.053,2.172
			c0.722,0.139,1.554,0.249,2.287,0.117C15.845,28.286,17.526,27.6,17.672,27.713z M15.191,29.738c0,0-2.287,0.417-2.497,0.485
			c-0.974,0.316-1.896,0.87-2.532,1.682c-0.285,0.362-1.533,3.132-2.063,3.102c1.55,0.091,2.865-0.329,4.153-1.168
			C13.466,33.048,15.311,31.385,15.191,29.738z M20.958,32.829c0.631-0.895,0.451-2.232,0.377-3.257
			c-0.035-0.489-0.791-2.654-0.539-2.954c-1.043,1.22-2.052,2.45-2.482,4.022c-0.216,0.792-0.271,1.608-0.22,2.424
			c0.021,0.331,0.502,2.17,0.343,2.343C19.227,34.55,20.298,33.763,20.958,32.829z M17.567,153.501
			c-1.883-2.604-6.772-2.521-9.045-0.45c1.187,0.335,2.147,1.428,3.36,1.856c1.396,0.491,3.003,0.311,4.304-0.393
			C16.697,154.24,17.076,153.8,17.567,153.501z M13.372,159.903c0.237-0.185,1.407-1.574,1.586-1.542
			c-1.614-0.296-2.82-0.82-4.467-0.185c-0.714,0.274-1.354,0.678-1.969,1.129c-0.224,0.166-1.669,1.576-1.827,1.52
			c1.469,0.523,3.113,0.484,4.598,0.038C11.998,160.65,12.787,160.36,13.372,159.903z M13.011,166.305
			c0.706-1.266,1.565-3.594,0.695-4.999c0,0-1.83,1.435-1.985,1.592c-0.715,0.732-1.271,1.653-1.458,2.667
			c-0.086,0.454,0.1,3.488-0.383,3.705C11.293,168.629,12.262,167.646,13.011,166.305z M19.217,164.815
			c0.299-1.126,0.881-2.321,1.031-3.456c0.143-1.085-0.64-2.187-1.18-3.059c-0.26-0.417-1.937-1.98-1.853-2.364
			c-0.356,1.565-0.677,3.125-0.324,4.715c0.175,0.8,0.507,1.548,0.932,2.248C17.995,163.181,19.278,164.586,19.217,164.815z
			 M17.567,401.756c-1.883-2.604-6.772-2.52-9.045-0.449c1.187,0.336,2.147,1.428,3.36,1.857c1.396,0.492,3.003,0.309,4.304-0.393
			C16.697,402.497,17.076,402.057,17.567,401.756z M13.372,408.159c0.237-0.186,1.407-1.572,1.586-1.541
			c-1.614-0.295-2.82-0.818-4.467-0.186c-0.714,0.275-1.354,0.682-1.969,1.133c-0.224,0.164-1.669,1.574-1.827,1.52
			c1.469,0.521,3.113,0.482,4.598,0.037C11.998,408.905,12.787,408.616,13.372,408.159z M13.011,414.561
			c0.706-1.266,1.565-3.596,0.695-4.998c0,0-1.83,1.434-1.985,1.592c-0.715,0.732-1.271,1.652-1.458,2.666
			c-0.086,0.453,0.1,3.488-0.383,3.705C11.293,416.885,12.262,415.901,13.011,414.561z M19.217,413.071
			c0.299-1.125,0.881-2.318,1.031-3.455c0.143-1.086-0.64-2.186-1.18-3.061c-0.26-0.416-1.937-1.977-1.853-2.363
			c-0.356,1.566-0.677,3.125-0.324,4.717c0.175,0.801,0.507,1.547,0.932,2.246C17.995,411.436,19.278,412.844,19.217,413.071z
			 M14.443,274.417c0.896,0.854,1.236,2.266,2.112,3.209c1.008,1.084,2.513,1.67,3.99,1.652c0.58-0.006,1.123-0.217,1.695-0.254
			C21.785,275.842,17.418,273.641,14.443,274.417z M17.672,282.114c-1.294-1.016-2.115-2.037-3.869-2.244
			c-0.757-0.088-1.516-0.025-2.268,0.086c-0.274,0.043-2.211,0.619-2.325,0.496c1.056,1.145,2.53,1.875,4.053,2.17
			c0.722,0.141,1.554,0.25,2.287,0.119C15.845,282.684,17.526,282,17.672,282.114z M15.191,284.137c0,0-2.287,0.418-2.497,0.486
			c-0.974,0.316-1.896,0.869-2.532,1.682c-0.285,0.363-1.533,3.131-2.063,3.1c1.55,0.094,2.865-0.326,4.153-1.166
			C13.466,287.45,15.311,285.784,15.191,284.137z M20.958,287.227c0.632-0.893,0.451-2.232,0.378-3.256
			c-0.035-0.49-0.792-2.654-0.54-2.955c-1.042,1.221-2.051,2.451-2.481,4.021c-0.216,0.791-0.271,1.607-0.22,2.424
			c0.021,0.332,0.502,2.17,0.343,2.346C19.227,288.948,20.298,288.163,20.958,287.227z"/>
	</g>
	<path fill="#7CD33B" d="M29.011,69.197c-1.793,0.592-3.896-0.079-5.402-1.079c-0.826-0.548-1.498-1.194-1.906-2.111
		c-0.242-0.541-0.383-1.129-0.473-1.713c-0.039-0.247,0.033-1.433-0.119-1.572c0.693,0.636,1.736,0.641,2.607,0.89
		C26.505,64.408,27.093,67.336,29.011,69.197z"/>
	<path fill="#43B72C" d="M9.284,93.59c-0.271,0.734-0.619,1.435-0.901,2.154c-0.676,1.724-1.448,3.17-2.866,4.4
		c-1.332,1.158-3.796,1.386-5.517,1.285c0.314,0.018,1.691-1.837,1.877-2.16c0.399-0.693,0.649-1.443,1.112-2.133
		C4.551,94.808,6.851,94.572,9.284,93.59z"/>
	<path fill="#43B72C" d="M35.33,202.123c-0.106,0.775-0.295,1.535-0.415,2.297c-0.287,1.83-0.729,3.409-1.847,4.916
		c-1.054,1.417-3.409,2.172-5.112,2.444c0.313-0.05,1.255-2.158,1.365-2.513c0.241-0.763,0.326-1.549,0.629-2.324
		C30.972,204.333,33.167,203.606,35.33,202.123z"/>
	<path fill="#7CD33B" d="M28.115,166.691c0.387,0.681,0.844,1.318,1.234,1.983c0.943,1.594,1.936,2.899,3.531,3.889
		c1.5,0.929,3.969,0.762,5.65,0.387c-0.311,0.069-1.961-1.543-2.195-1.832c-0.506-0.621-0.873-1.321-1.441-1.929
		C32.982,167.139,30.673,167.272,28.115,166.691z"/>
	<path fill="#7CD33B" d="M29.01,318.442c-1.792,0.594-3.896-0.08-5.402-1.08c-0.825-0.549-1.497-1.193-1.905-2.111
		c-0.242-0.539-0.383-1.129-0.474-1.713c-0.039-0.246,0.034-1.434-0.118-1.57c0.692,0.635,1.735,0.641,2.607,0.891
		C26.505,313.653,27.092,316.581,29.01,318.442z"/>
	<path fill="#43B72C" d="M9.284,342.833c-0.271,0.736-0.619,1.438-0.901,2.158c-0.676,1.723-1.448,3.166-2.866,4.398
		c-1.332,1.158-3.796,1.385-5.517,1.283c0.314,0.02,1.691-1.838,1.877-2.156c0.399-0.695,0.649-1.445,1.112-2.137
		C4.551,344.049,6.851,343.817,9.284,342.833z"/>
	<path fill="#43B72C" d="M35.33,451.368c-0.106,0.773-0.295,1.533-0.415,2.297c-0.287,1.83-0.729,3.41-1.847,4.914
		c-1.054,1.418-3.409,2.17-5.112,2.443c0.313-0.049,1.255-2.158,1.365-2.512c0.241-0.764,0.326-1.551,0.629-2.324
		C30.972,453.575,33.167,452.848,35.33,451.368z"/>
	<path fill="#7CD33B" d="M28.114,415.936c0.388,0.682,0.844,1.318,1.235,1.98c0.943,1.596,1.935,2.9,3.531,3.891
		c1.5,0.928,3.968,0.76,5.649,0.385c-0.31,0.068-1.96-1.545-2.195-1.834c-0.505-0.619-0.873-1.318-1.441-1.926
		C32.981,416.383,30.672,416.518,28.114,415.936z"/>
</g>
</svg>
